<?xml version="1.0" encoding="UTF-8"?>
<!-- Generated by @neplex/vectorizer (Using visioncortex VTracer) -->
<svg version="1.1" xmlns="http://www.w3.org/2000/svg" width="375" height="397" viewBox="0 0 375 397">
<path d="M0 0 C123.75 0 247.5 0 375 0 C375 131.01 375 262.02 375 397 C251.25 397 127.5 397 0 397 C0 265.99 0 134.98 0 0 Z " fill="#FEFEFE" transform="translate(0,0)"/>
<path d="M0 0 C10.2 8.76 17.67 19.13 22.93 31.55 C22.93 32.21 22.93 32.87 22.93 33.55 C24.05 33.26 25.17 32.97 26.32 32.66 C30.52 31.57 34.73 30.48 38.93 29.39 C40.74 28.92 42.55 28.45 44.36 27.97 C62.56 23.22 62.56 23.22 71.51 21.92 C74.08 21.53 76.59 21 79.12 20.43 C83.8 19.45 88.16 19.4 92.93 19.55 C95.94 26.52 97.02 33.37 98.05 40.86 C98.22 42.02 98.39 43.18 98.57 44.38 C99.05 47.77 99.5 51.16 99.93 54.55 C100.04 55.41 100.15 56.26 100.26 57.15 C102.84 80.84 102.75 107.21 97.93 130.55 C97.83 131.04 97.83 131.04 97.33 133.49 C90.5 165.61 76.77 193.91 53.93 217.55 C53.07 218.48 52.2 219.4 51.32 220.36 C39.92 232.27 26.52 241.02 11.93 248.55 C11.31 248.87 10.69 249.19 10.06 249.52 C0.05 254.6 -10.33 258.34 -21.07 261.55 C-21.91 261.8 -22.74 262.05 -23.61 262.31 C-30.69 264.35 -37.78 265.61 -45.07 266.68 C-46.17 266.84 -47.27 267.01 -48.4 267.19 C-59.61 268.88 -70.6 269.75 -81.95 269.74 C-83.08 269.74 -84.22 269.74 -85.4 269.74 C-103.95 269.61 -103.95 269.61 -110.07 266.55 C-109.6 259.92 -107.14 254.67 -104.26 248.74 C-103.77 247.73 -103.28 246.71 -102.78 245.67 C-93.69 227.32 -81.24 210.97 -67.34 196 C-65.35 193.85 -63.42 191.66 -61.51 189.43 C-55.94 183.03 -49.89 177.17 -43.45 171.64 C-40.17 168.76 -36.96 165.78 -33.76 162.8 C-33.15 162.23 -32.54 161.67 -31.91 161.08 C-29.25 158.61 -26.62 156.13 -24.07 153.55 C-24.81 153.26 -25.56 152.97 -26.32 152.68 C-28.64 151.73 -30.84 150.69 -33.07 149.55 C-33.84 150.26 -34.62 150.98 -35.41 151.71 C-36.47 152.68 -37.52 153.65 -38.57 154.61 C-38.82 154.85 -38.82 154.85 -40.1 156.03 C-42.95 158.64 -45.83 161.2 -48.76 163.72 C-53.71 168.04 -58.36 172.66 -63.01 177.3 C-64.5 178.79 -66 180.27 -67.49 181.75 C-73.8 188.02 -79.57 194.55 -85.07 201.55 C-85.34 201.89 -85.34 201.89 -86.72 203.61 C-100.6 221.07 -111.43 240.6 -119.07 261.55 C-120.06 260.23 -121.05 258.91 -122.07 257.55 C-122.17 262.73 -122.24 267.91 -122.29 273.08 C-122.31 274.84 -122.34 276.61 -122.37 278.37 C-122.42 280.9 -122.44 283.43 -122.46 285.97 C-122.48 286.75 -122.5 287.54 -122.52 288.34 C-122.52 291.85 -122.27 294.21 -120.5 297.27 C-117.83 299.78 -116.43 300.13 -112.82 300.14 C-112.13 300.12 -111.45 300.09 -110.74 300.07 C-110.01 300.07 -109.28 300.06 -108.53 300.06 C-106.1 300.03 -103.68 299.98 -101.26 299.92 C-99.55 299.89 -97.84 299.87 -96.12 299.85 C-91.65 299.8 -87.18 299.71 -82.71 299.61 C-80.18 299.55 -77.65 299.51 -75.11 299.46 C-64.59 299.28 -54.06 299.03 -43.54 298.74 C-40.96 298.67 -38.38 298.61 -35.8 298.54 C-13.76 297.97 8.28 297.33 30.3 296.49 C31.36 296.45 32.41 296.41 33.49 296.37 C39.97 296.12 46.45 295.85 52.93 295.55 C53.78 295.51 54.62 295.47 55.49 295.43 C57.93 295.32 60.36 295.2 62.8 295.07 C63.15 295.06 63.15 295.06 64.91 294.97 C74.5 294.46 85.32 293.84 92.93 287.55 C97.13 279.1 94.76 268.32 93.93 259.24 C93.16 250.31 92.64 241.52 92.93 232.55 C95.24 232.55 97.55 232.55 99.93 232.55 C101.63 246.62 103.22 260.68 103.43 274.86 C103.46 275.83 103.49 276.79 103.52 277.78 C103.53 285.9 100.76 290.59 95.24 296.36 C86.73 301.98 76.53 302.38 66.62 303.14 C65.84 303.2 65.07 303.26 64.28 303.32 C39.57 305.25 14.77 305.52 -9.99 306.05 C-18.79 306.23 -27.59 306.43 -36.39 306.64 C-37.7 306.67 -39.01 306.7 -40.35 306.73 C-41.64 306.76 -42.93 306.79 -44.26 306.82 C-47.95 306.9 -51.65 306.98 -55.34 307.06 C-70.24 307.38 -85.1 307.95 -99.97 308.76 C-102.94 308.92 -105.91 309.02 -108.88 309.11 C-109.87 309.18 -110.85 309.24 -111.86 309.3 C-115.93 309.39 -118.86 309.36 -122.3 307.05 C-124.42 304.99 -126.25 302.87 -128.07 300.55 C-128.68 299.81 -129.28 299.06 -129.91 298.3 C-131.67 296.08 -133.38 293.83 -135.07 291.55 C-135.36 291.16 -135.36 291.16 -136.84 289.2 C-138.26 287.32 -139.67 285.44 -141.07 283.55 C-141.82 283.83 -142.56 284.11 -143.33 284.39 C-146.74 285.65 -150.15 286.88 -153.57 288.11 C-154.74 288.55 -155.92 288.99 -157.12 289.44 C-163.6 291.75 -168.33 293.34 -175.07 291.55 C-179.12 289.09 -180.7 287.03 -182.07 282.55 C-182.91 271.85 -182.03 261.19 -180.83 250.55 C-179.34 236.78 -178.11 222.98 -176.91 209.17 C-176.82 208.08 -176.72 206.99 -176.63 205.86 C-175.84 196.75 -175.06 187.64 -174.27 178.53 C-173.59 170.62 -172.91 162.71 -172.23 154.8 C-172.18 154.26 -172.18 154.26 -171.94 151.51 C-170.68 137.03 -169.32 122.57 -167.67 108.13 C-166.87 100.98 -166.32 93.8 -165.79 86.62 C-165.03 76.53 -165.03 76.53 -160.97 72.43 C-157.35 70.09 -153.79 68.83 -149.7 67.55 C-148.9 67.3 -148.11 67.04 -147.29 66.78 C-144.89 66.02 -142.48 65.28 -140.07 64.55 C-139.39 64.34 -138.71 64.13 -138.01 63.91 C-123.18 59.33 -108.42 59.38 -93.07 59.55 C-93.06 58.88 -93.04 58.21 -93.03 57.52 C-92.03 37.37 -83.46 17.42 -68.84 3.41 C-48.55 -13.96 -21.54 -17.18 0 0 Z " fill="#7AC639" transform="translate(230.0703125,54.44921875)"/>
<path d="M0 0 C10.2 8.76 17.67 19.13 22.93 31.55 C22.93 32.21 22.93 32.87 22.93 33.55 C24.05 33.26 25.17 32.97 26.32 32.66 C30.52 31.57 34.73 30.48 38.93 29.39 C40.74 28.92 42.55 28.45 44.36 27.97 C62.56 23.22 62.56 23.22 71.51 21.92 C74.08 21.53 76.59 21 79.12 20.43 C83.8 19.45 88.16 19.4 92.93 19.55 C95.94 26.52 97.02 33.37 98.05 40.86 C98.22 42.02 98.39 43.18 98.57 44.38 C99.05 47.77 99.5 51.16 99.93 54.55 C100.04 55.41 100.15 56.26 100.26 57.15 C102.84 80.84 102.75 107.21 97.93 130.55 C97.83 131.04 97.83 131.04 97.33 133.49 C90.5 165.61 76.77 193.91 53.93 217.55 C53.07 218.48 52.2 219.4 51.32 220.36 C39.92 232.27 26.52 241.02 11.93 248.55 C11.31 248.87 10.69 249.19 10.06 249.52 C0.05 254.6 -10.33 258.34 -21.07 261.55 C-21.91 261.8 -22.74 262.05 -23.61 262.31 C-30.69 264.35 -37.78 265.61 -45.07 266.68 C-46.17 266.84 -47.27 267.01 -48.4 267.19 C-59.61 268.88 -70.6 269.75 -81.95 269.74 C-83.08 269.74 -84.22 269.74 -85.4 269.74 C-103.95 269.61 -103.95 269.61 -110.07 266.55 C-109.74 264.24 -109.41 261.93 -109.07 259.55 C-108.4 259.62 -107.73 259.69 -107.04 259.76 C-58.07 264.31 -6.57 256.78 33.12 225.61 C34.73 224.27 36.34 222.92 37.93 221.55 C38.75 220.85 39.57 220.15 40.42 219.43 C54.27 207.32 64.16 193.57 72.93 177.55 C73.46 176.62 73.98 175.69 74.52 174.73 C82.45 159.94 87.06 143.02 89.93 126.55 C90.08 125.7 90.23 124.85 90.38 123.97 C95.77 91.69 92.61 59.71 87.93 27.55 C68.35 31.11 49.13 35.28 29.93 40.55 C27.84 41.12 25.75 41.69 23.66 42.26 C22.09 42.69 20.51 43.12 18.93 43.55 C16.87 40.46 15.43 37.37 14.12 33.93 C7.92 18.19 -0.56 8.03 -15.62 0.23 C-25.53 -4.07 -37.53 -4.28 -47.57 -0.32 C-64.76 8.05 -74.66 20.59 -81.11 38.62 C-82.81 43.82 -84.04 48.83 -84.62 54.29 C-84.7 55.09 -84.79 55.89 -84.88 56.71 C-84.94 57.32 -85 57.93 -85.07 58.55 C-84.52 58.53 -83.98 58.5 -83.41 58.47 C-57.63 57.3 -31.89 56.14 -6.07 56.55 C-6.07 58.86 -6.07 61.17 -6.07 63.55 C-15.38 64.28 -24.67 64.77 -34.01 65.05 C-35.97 65.11 -37.93 65.17 -39.89 65.24 C-42.6 65.32 -45.31 65.41 -48.03 65.49 C-54.04 65.67 -60.06 65.86 -66.07 66.05 C-67.36 66.09 -68.66 66.13 -69.99 66.17 C-78.44 66.45 -86.89 66.78 -95.33 67.25 C-103.57 67.67 -111.82 67.59 -120.07 67.55 C-120.07 68.1 -120.07 68.64 -120.06 69.21 C-119.96 96.29 -120.01 123.37 -120.51 150.45 C-120.52 151.05 -120.52 151.05 -120.57 154.1 C-120.76 163.94 -120.95 173.78 -121.14 183.62 C-121.5 201.93 -121.83 220.24 -122.07 238.55 C-122.08 239.2 -122.08 239.2 -122.12 242.48 C-122.23 250.37 -122.31 258.26 -122.36 266.15 C-122.37 268.63 -122.4 271.12 -122.43 273.6 C-122.47 277.02 -122.49 280.45 -122.5 283.87 C-122.51 284.89 -122.53 285.9 -122.55 286.94 C-122.54 291.13 -122.4 293.9 -120.5 297.69 C-117.27 300.16 -114.65 300.2 -110.74 300.07 C-110.01 300.07 -109.28 300.06 -108.53 300.06 C-106.1 300.03 -103.68 299.98 -101.26 299.92 C-99.55 299.89 -97.84 299.87 -96.12 299.85 C-91.65 299.8 -87.18 299.71 -82.71 299.61 C-80.18 299.55 -77.65 299.51 -75.11 299.46 C-64.59 299.28 -54.06 299.03 -43.54 298.74 C-40.96 298.67 -38.38 298.61 -35.8 298.54 C-13.76 297.97 8.28 297.33 30.3 296.49 C31.36 296.45 32.41 296.41 33.49 296.37 C39.97 296.12 46.45 295.85 52.93 295.55 C53.78 295.51 54.62 295.47 55.49 295.43 C57.93 295.32 60.36 295.2 62.8 295.07 C63.15 295.06 63.15 295.06 64.91 294.97 C74.5 294.46 85.32 293.84 92.93 287.55 C97.13 279.1 94.76 268.32 93.93 259.24 C93.16 250.31 92.64 241.52 92.93 232.55 C95.24 232.55 97.55 232.55 99.93 232.55 C101.63 246.62 103.22 260.68 103.43 274.86 C103.46 275.83 103.49 276.79 103.52 277.78 C103.53 285.9 100.76 290.59 95.24 296.36 C86.73 301.98 76.53 302.38 66.62 303.14 C65.84 303.2 65.07 303.26 64.28 303.32 C39.57 305.25 14.77 305.52 -9.99 306.05 C-18.79 306.23 -27.59 306.43 -36.39 306.64 C-37.7 306.67 -39.01 306.7 -40.35 306.73 C-41.64 306.76 -42.93 306.79 -44.26 306.82 C-47.95 306.9 -51.65 306.98 -55.34 307.06 C-70.24 307.38 -85.1 307.95 -99.97 308.76 C-102.94 308.92 -105.91 309.02 -108.88 309.11 C-109.87 309.18 -110.85 309.24 -111.86 309.3 C-115.93 309.39 -118.86 309.36 -122.3 307.05 C-124.42 304.99 -126.25 302.87 -128.07 300.55 C-128.68 299.81 -129.28 299.06 -129.91 298.3 C-131.67 296.08 -133.38 293.83 -135.07 291.55 C-135.36 291.16 -135.36 291.16 -136.84 289.2 C-138.26 287.32 -139.67 285.44 -141.07 283.55 C-141.82 283.83 -142.56 284.11 -143.33 284.39 C-146.74 285.65 -150.15 286.88 -153.57 288.11 C-154.74 288.55 -155.92 288.99 -157.12 289.44 C-163.6 291.75 -168.33 293.34 -175.07 291.55 C-179.12 289.09 -180.7 287.03 -182.07 282.55 C-182.91 271.85 -182.03 261.19 -180.83 250.55 C-179.34 236.78 -178.11 222.98 -176.91 209.17 C-176.82 208.08 -176.72 206.99 -176.63 205.86 C-175.84 196.75 -175.06 187.64 -174.27 178.53 C-173.59 170.62 -172.91 162.71 -172.23 154.8 C-172.18 154.26 -172.18 154.26 -171.94 151.51 C-170.68 137.03 -169.32 122.57 -167.67 108.13 C-166.87 100.98 -166.32 93.8 -165.79 86.62 C-165.03 76.53 -165.03 76.53 -160.97 72.43 C-157.35 70.09 -153.79 68.83 -149.7 67.55 C-148.9 67.3 -148.11 67.04 -147.29 66.78 C-144.89 66.02 -142.48 65.28 -140.07 64.55 C-139.39 64.34 -138.71 64.13 -138.01 63.91 C-123.18 59.33 -108.42 59.38 -93.07 59.55 C-93.06 58.88 -93.04 58.21 -93.03 57.52 C-92.03 37.37 -83.46 17.42 -68.84 3.41 C-48.55 -13.96 -21.54 -17.18 0 0 Z " fill="#292B27" transform="translate(230.0703125,54.44921875)"/>
<path d="M0 0 C0.03 1.62 0.05 3.25 0.06 4.88 C0.07 5.78 0.09 6.68 0.1 7.62 C0.02 10.3 -0.18 12.87 -0.47 15.53 C-1.03 20.96 -1.32 26.38 -1.54 31.84 C-1.58 32.88 -1.62 33.93 -1.67 35 C-1.8 38.46 -1.93 41.92 -2.06 45.38 C-2.11 46.57 -2.15 47.76 -2.2 49 C-2.95 69.87 -3.19 90.73 -3.19 111.61 C-3.19 113.87 -3.19 116.12 -3.19 118.38 C-3.19 121.95 -3.19 125.53 -3.17 129.11 C-3.17 131.05 -3.17 132.99 -3.16 134.93 C-3.13 140.97 -2.91 146.88 -2.23 152.89 C-1.93 155.61 -1.87 158.31 -1.87 161.05 C-1.87 162.13 -1.86 163.2 -1.86 164.32 C-1.87 165.45 -1.87 166.58 -1.88 167.75 C-1.88 168.94 -1.88 170.14 -1.88 171.36 C-1.95 185.25 -2.45 199.12 -3 213 C-7.88 208.38 -7.88 208.38 -9 205 C-16.98 207.32 -24.74 209.92 -32.44 213.07 C-36.42 214.64 -39.73 215.66 -44 215 C-46.03 212.89 -46.92 211.55 -47.33 208.62 C-47.3 207.76 -47.28 206.89 -47.25 206 C-47.22 205.02 -47.2 204.05 -47.17 203.04 C-46.89 198.02 -46.47 193.03 -45.97 188.02 C-45.86 186.85 -45.75 185.69 -45.63 184.49 C-45.32 181.27 -45.01 178.06 -44.7 174.84 C-44.15 169.18 -43.61 163.51 -43.07 157.85 C-42.85 155.54 -42.63 153.23 -42.41 150.93 C-40.57 131.62 -38.82 112.3 -37.07 92.99 C-36.73 89.25 -36.39 85.51 -36.05 81.77 C-35.65 77.29 -35.24 72.8 -34.83 68.32 C-34.75 67.46 -34.68 66.6 -34.59 65.71 C-33.76 56.47 -32.93 47.23 -32.13 37.99 C-31.99 36.4 -31.85 34.81 -31.72 33.22 C-31.46 30.28 -31.21 27.33 -30.96 24.38 C-30.85 23.08 -30.74 21.78 -30.62 20.44 C-30.52 19.31 -30.43 18.18 -30.33 17.02 C-29.72 11.38 -29.72 11.38 -29 9 C-26.47 7.67 -24.31 6.75 -21.62 5.88 C-20.9 5.62 -20.18 5.37 -19.44 5.11 C-4.56 0 -4.56 0 0 0 Z " fill="#FDFDFB" transform="translate(102,124)"/>
<path d="M0 0 C16.22 8.68 25.92 22.52 31.99 39.6 C31.99 40.59 31.99 41.58 31.99 42.6 C31.16 42.88 30.33 43.17 29.47 43.46 C26.35 44.52 23.22 45.59 20.1 46.65 C18.75 47.11 17.41 47.57 16.06 48.03 C14.11 48.69 12.16 49.36 10.21 50.02 C9.57 50.24 8.93 50.46 8.27 50.69 C4.92 51.84 1.84 53.16 -1.26 54.85 C-8.49 58.18 -17.2 57.58 -25.01 57.85 C-26.8 57.93 -28.59 58 -30.38 58.08 C-43.92 58.64 -57.46 58.86 -71.01 58.6 C-71.27 52.58 -70.8 47.5 -68.88 41.79 C-68.66 41.1 -68.43 40.42 -68.2 39.71 C-63.01 24.38 -54.19 9.69 -39.58 1.74 C-26.48 -4.37 -13.53 -6.04 0 0 Z " fill="#FCFDFB" transform="translate(216.0078125,54.3984375)"/>
<path d="M0 0 C2.44 0.81 2.44 0.81 5 2 C5.16 2.5 5.16 2.5 6 5 C4.99 6.53 3.97 8.05 2.89 9.53 C-3.45 18.35 -3.6 25.4 -3.15 35.98 C-2.48 51.72 -9.87 67.13 -20.01 78.89 C-28.48 87.86 -38.19 94.22 -50.8 95.34 C-66.16 95.49 -76.87 90.96 -88.12 80.25 C-96.96 70.96 -102.63 60.49 -108 49 C-108.38 48.21 -108.76 47.42 -109.15 46.6 C-110.3 44.18 -111.43 41.75 -112.56 39.31 C-112.74 38.94 -112.74 38.94 -113.65 37.03 C-115.07 33.88 -115.99 31.59 -116.03 28.11 C-114.62 25.22 -112.93 25.05 -110 24 C-109.65 24.81 -109.3 25.62 -108.93 26.46 C-107.59 29.53 -106.24 32.61 -104.89 35.68 C-104.31 36.99 -103.73 38.31 -103.16 39.63 C-95.63 56.96 -86.22 76.76 -67.79 84.32 C-56.69 88.03 -48.65 88.07 -38 83 C-25.08 75.44 -17.39 62.36 -13.06 48.38 C-11.65 42.61 -11.72 36.9 -12 31 C-12.42 31.56 -12.84 32.12 -13.27 32.7 C-18.81 39.82 -24.97 46.22 -31.31 52.62 C-31.75 53.08 -31.75 53.08 -33.99 55.36 C-34.84 56.2 -35.68 57.04 -36.55 57.91 C-36.93 58.3 -36.93 58.3 -38.85 60.23 C-40.99 61.99 -42.29 62.61 -45 63 C-45.99 61.68 -46.98 60.36 -48 59 C-46.7 56.09 -45.37 54.16 -42.99 52.05 C-42.4 51.51 -41.81 50.98 -41.2 50.43 C-40.89 50.16 -40.89 50.16 -39.31 48.75 C-34.18 44.08 -29.41 39.37 -25 34 C-24.29 33.2 -23.58 32.41 -22.86 31.59 C-15.05 22.64 -8.69 12.8 -2.24 2.85 C-1 1 -1 1 0 0 Z " fill="#262922" transform="translate(283,120)"/>
<path d="M0 0 C0 7.23 -9.02 14.37 -13.68 19.46 C-15.22 21.15 -16.75 22.85 -18.26 24.57 C-22.67 29.59 -27.12 33.96 -32.45 38.02 C-32.96 38.67 -33.47 39.33 -34 40 C-33.81 40.96 -33.61 41.92 -33.41 42.9 C-33.28 43.92 -33.14 44.95 -33 46 C-34.72 48.15 -36.16 49.6 -38.25 51.31 C-38.79 51.78 -39.34 52.24 -39.9 52.72 C-41.03 53.69 -42.16 54.64 -43.31 55.59 C-44.93 56.94 -46.5 58.33 -48.07 59.75 C-49.02 60.57 -49.96 61.4 -50.94 62.25 C-51.36 62.62 -51.36 62.62 -53.53 64.52 C-56 66 -56 66 -58.5 66.05 C-61.78 64.67 -63.65 62.62 -66 60 C-60.61 55.01 -55.22 50.11 -49.5 45.5 C-44.69 41.61 -40.11 37.53 -35.55 33.34 C-33.37 31.34 -31.17 29.38 -28.94 27.44 C-21.38 20.85 -14.02 14.16 -7 7 C-6.04 6.04 -5.08 5.08 -4.12 4.12 C-3.77 3.77 -3.77 3.77 -2 2 C-1.34 1.34 -0.68 0.68 0 0 Z " fill="#F6F8F4" transform="translate(270,137)"/>
<path d="M0 0 C0.33 0 0.66 0 1 0 C1.1 34.32 1.12 68.63 0.56 102.94 C0.54 104.21 0.52 105.49 0.5 106.81 C0.1 132.32 0.1 132.32 -1 144 C-1.33 144 -1.66 144 -2 144 C-3 136.03 -3.16 128.14 -3.17 120.12 C-3.17 118.76 -3.18 117.4 -3.18 116.04 C-3.19 112.41 -3.19 108.77 -3.19 105.13 C-3.19 102.87 -3.19 100.6 -3.19 98.34 C-3.19 77 -2.86 55.7 -2.06 34.38 C-2.02 33.2 -1.98 32.02 -1.93 30.81 C-1.8 27.48 -1.67 24.16 -1.54 20.84 C-1.5 19.88 -1.46 18.92 -1.42 17.93 C-1.15 11.93 -0.66 5.97 0 0 Z " fill="#80BE49" transform="translate(101,135)"/>
<path d="M0 0 C0 3.52 -0.68 4.32 -2.75 7.06 C-3.26 7.75 -3.77 8.45 -4.3 9.16 C-6.1 11.11 -7.61 11.91 -10 13 C-11.37 14.29 -12.71 15.62 -14 17 C-14.66 16.67 -15.32 16.34 -16 16 C-10.67 10.67 -5.33 5.33 0 0 Z " fill="#DEE9D2" transform="translate(270,137)"/>
<path d="M0 0 C0.66 0.33 1.32 0.66 2 1 C-2.29 5.29 -6.58 9.58 -11 14 C-11.66 13.67 -12.32 13.34 -13 13 C-11.59 11.39 -10.17 9.79 -8.75 8.19 C-7.96 7.29 -7.17 6.4 -6.36 5.48 C-4.34 3.36 -2.4 1.66 0 0 Z " fill="#3D3D3B" transform="translate(166,54)"/>
</svg>
