<?xml version="1.0" encoding="UTF-8"?>
<!-- Generated by @neplex/vectorizer (Using visioncortex VTracer) -->
<svg version="1.1" xmlns="http://www.w3.org/2000/svg" width="495" height="510">
<path d="M0 0 C163.35 0 326.7 0 495 0 C495 168.3 495 336.6 495 510 C331.65 510 168.3 510 0 510 C0 341.7 0 173.4 0 0 Z " fill="#FEFEFD" transform="translate(0,0)"/>
<path d="M0 0 C7.59738 6.05768 14.71619 12.65378 18 22 C18.23719 22.38156 18.23719 22.38156 19.4375 24.3125 C24.47737 32.98108 24.65596 41.22461 25 51 C25.66 51 26.32 51 27 51 C27.5818 81.74563 27.5818 81.74563 24.78516 92.82812 C23.92665 96.29633 23.48486 99.70366 23.0625 103.25 C22.33426 108.60645 21.05118 113.28391 19.06641 118.30078 C17.95646 121.1102 16.99943 123.94102 16.0625 126.8125 C14.55274 131.36556 13.01668 135.90799 11.4375 140.4375 C11.04434 141.57059 10.65117 142.70367 10.24609 143.87109 C9.07049 146.82301 7.6378 149.28917 6 152 C4.93175 154.7688 3.99968 157.56346 3.0625 160.37891 C2.0042 162.98964 0.73576 164.80325 -1 167 C-1.67349 168.66392 -2.34092 170.33032 -3 172 C-3.66 172.66 -4.32 173.32 -5 174 C-5.625 176.125 -5.625 176.125 -6 178 C-6.66 178 -7.32 178 -8 178 C-8.10441 178.73605 -8.20883 179.47211 -8.31641 180.23047 C-9.06298 183.25515 -10.07056 184.83935 -11.9375 187.3125 C-15.19007 191.77393 -18.11848 196.35888 -21 201.0625 C-24.1018 206.08144 -27.25237 210.90455 -30.98047 215.48828 C-32.64994 217.56463 -34.26403 219.66288 -35.86328 221.79297 C-45.71412 234.8983 -56.30624 247.19471 -67.44141 259.21875 C-69.89453 261.88535 -72.29235 264.5939 -74.6875 267.3125 C-77.8749 270.86659 -81.18956 274.0173 -84.83594 277.08984 C-87.50689 279.44741 -90.00097 281.96386 -92.5 284.5 C-96.83788 288.88415 -101.30726 293.00104 -106 297 C-107.1599 298.01052 -108.31865 299.02236 -109.47656 300.03516 C-116.52464 306.19336 -123.61982 312.2406 -131 318 C-132.33871 319.05838 -133.67724 320.117 -135.01562 321.17578 C-147.63188 331.11795 -160.45569 340.72799 -174.125 349.1875 C-174.42064 349.37494 -174.42064 349.37494 -175.91675 350.32349 C-179.91937 352.73053 -183.3281 353.84154 -188 354 C-205.50378 347.16491 -223.27148 324.08149 -232 308 C-232.66395 306.46605 -233.31076 304.92453 -233.9375 303.375 C-237.41899 295.261 -244.4323 289.53551 -250.59766 283.42578 C-253.90477 280.08641 -256.96685 276.58747 -260 273 C-260.42217 272.505 -260.42217 272.505 -262.55859 270 C-268.45842 263.06957 -274.27412 256.07514 -280 249 C-280.74379 248.11313 -281.48758 247.22625 -282.25391 246.3125 C-284 244 -284 244 -284 242 C-284.66 242 -285.32 242 -286 242 C-287.41016 240.01563 -287.41016 240.01563 -289.0625 237.25 C-291.67326 233.01971 -294.42069 229.01359 -297.4375 225.0625 C-301.89713 219.21019 -305.974 213.15538 -310 207 C-310.34869 206.48115 -310.34869 206.48115 -312.11328 203.85547 C-313.83073 201.25618 -315.36461 198.60146 -316.88281 195.88281 C-318.07933 193.86631 -319.40108 191.98016 -320.75 190.0625 C-337.16113 165.67317 -347.65286 134.61602 -353 106 C-353.17136 105.14261 -353.34273 104.28522 -353.51929 103.40186 C-355.21504 93.97194 -355.33867 84.66777 -355.31567 75.11865 C-355.31253 72.4003 -355.336 69.68306 -355.36133 66.96484 C-355.41882 51.41711 -353.85072 36.23499 -349.0625 21.375 C-348.82338 20.58223 -348.58426 19.78945 -348.33789 18.97266 C-345.9328 11.21798 -342.86221 3.95509 -338.4375 -2.875 C-337.85871 -3.77992 -337.27992 -4.68484 -336.68359 -5.61719 C-333.76798 -9.74369 -333.76798 -9.74369 -332 -11 C-328.55654 -11.46872 -326.67377 -11.39061 -323.64844 -9.63672 C-322.8982 -8.99348 -322.14797 -8.35023 -321.375 -7.6875 C-320.50875 -6.95016 -319.6425 -6.21281 -318.75 -5.45312 C-313.78178 -1.02125 -308.86353 3.45404 -304 8 C-302.66545 9.24097 -301.33081 10.48185 -299.99609 11.72266 C-281.77165 28.69914 -281.77165 28.69914 -273.94531 37.83594 C-271.55974 40.48976 -269.03902 42.99477 -266.5 45.5 C-262.81776 49.13836 -259.29281 52.84593 -255.93359 56.78516 C-253.90096 59.11345 -251.80585 61.37177 -249.69629 63.63013 C-244.6267 69.05812 -239.79818 74.59271 -235.14453 80.38672 C-233.00125 82.99848 -230.7762 85.50365 -228.5 88 C-224.58109 92.29992 -220.90829 96.7592 -217.25 101.28125 C-215.06498 103.92148 -212.80829 106.4673 -210.5 109 C-206.27852 113.6429 -202.30697 118.45094 -198.36182 123.3291 C-196.79837 125.2474 -195.21856 127.15153 -193.63672 129.05469 C-186.86266 137.21036 -180.17747 145.37753 -174 154 C-173.6165 154.53238 -173.6165 154.53238 -171.67578 157.22656 C-170.93715 158.28617 -170.19852 159.34578 -169.4375 160.4375 C-168.77621 161.38496 -168.11492 162.33242 -167.43359 163.30859 C-165.90362 166.18094 -165.68066 167.80081 -166 171 C-174.83662 169.56237 -181.0771 156.63482 -186 150 C-191.62462 142.5363 -197.60832 135.36482 -203.5625 128.16406 C-205.59296 125.70818 -207.61743 123.24807 -209.625 120.77344 C-213.62808 115.83909 -217.72188 111.03074 -221.97266 106.30859 C-224.19532 103.77758 -226.31857 101.18087 -228.4375 98.5625 C-232.12084 94.0233 -235.94846 89.65438 -239.88281 85.33203 C-241.78051 83.24176 -243.64733 81.13014 -245.5 79 C-248.8586 75.14612 -252.27347 71.34502 -255.69922 67.55078 C-257.1641 65.92673 -258.62544 64.29946 -260.08203 62.66797 C-271.66794 49.70637 -283.64753 37.14504 -295.92334 24.83643 C-298.13711 22.61284 -300.33995 20.37876 -302.54297 18.14453 C-318.51387 2.05318 -318.51387 2.05318 -327 -3 C-327.99 -3 -328.98 -3 -330 -3 C-330.33 -2.34 -330.66 -1.68 -331 -1 C-330.40018 -0.73751 -329.80037 -0.47503 -329.18237 -0.20459 C-326.87297 1.07011 -325.71807 2.22676 -324.08203 4.27344 C-323.55432 4.92756 -323.02661 5.58167 -322.48291 6.25562 C-321.93167 6.95501 -321.38044 7.65441 -320.8125 8.375 C-320.52528 8.73404 -320.52528 8.73404 -319.07178 10.55103 C-314.95098 15.72706 -310.9406 20.97754 -307.01172 26.30078 C-304.4908 29.68322 -301.86532 32.97628 -299.21484 36.25781 C-298 38 -298 38 -298 40 C-297.34 40 -296.68 40 -296 40 C-294.33367 41.96603 -292.78248 43.93338 -291.25 46 C-290.80479 46.59144 -290.35958 47.18288 -289.90088 47.79224 C-289.00927 48.97765 -288.12007 50.16489 -287.2334 51.354 C-286.17166 52.77092 -285.09146 54.17398 -284.00781 55.57422 C-283.46898 56.2716 -282.93016 56.96898 -282.375 57.6875 C-282.14168 57.9885 -282.14168 57.9885 -280.96094 59.51172 C-280 61 -280 61 -280 63 C-279.34 63 -278.68 63 -278 63 C-276.0858 65.35944 -274.28162 67.73056 -272.5 70.1875 C-271.40696 71.6711 -270.3132 73.15416 -269.21875 74.63672 C-268.67348 75.37841 -268.1282 76.12011 -267.56641 76.88428 C-265.41679 79.78774 -263.21273 82.64429 -261 85.5 C-252.92926 95.94762 -245.06086 106.54473 -237.25 117.1875 C-232.11557 124.18247 -226.89574 131.10722 -221.625 138 C-216.32171 144.9369 -211.07949 151.89714 -206 159 C-205.10217 160.23222 -204.20369 161.46395 -203.30469 162.69531 C-202.36957 163.98422 -201.43467 165.27328 -200.5 166.5625 C-200.0535 167.1715 -199.607 167.7805 -199.14697 168.40796 C-196 172.77297 -196 172.77297 -196 175 C-195.34 175 -194.68 175 -194 175 C-190 180.41176 -190 180.41176 -190 183 C-189.34 183 -188.68 183 -188 183 C-186.39477 185.05129 -184.9064 187.10379 -183.4375 189.25 C-182.5444 190.53225 -181.64984 191.81348 -180.75391 193.09375 C-180.29903 193.74473 -179.84415 194.3957 -179.37549 195.06641 C-176.56551 199.01654 -173.58085 202.83654 -170.61719 206.67188 C-169 209 -169 209 -169 211 C-165.51412 209.03157 -162.66213 206.92679 -159.75 204.1875 C-130.30322 177.31841 -102.14293 159.96057 -61.5625 158.5625 C-52.07262 158.22344 -43.23141 157.28624 -34 155 C-33.35015 154.84048 -32.7003 154.68096 -32.03076 154.5166 C-21.78044 151.91342 -12.8447 147.7409 -3.88721 142.13501 C-2 141 -2 141 0.10986 139.97241 C4.47262 137.70247 6.47979 135.77721 8.24219 131.12891 C8.81602 129.28237 9.3598 127.42625 9.875 125.5625 C10.01551 125.09812 10.01551 125.09812 10.72656 122.74805 C11.26518 120.96326 11.79281 119.1751 12.30762 117.3833 C13.12739 114.56151 14.04445 111.77851 15 109 C14.34 109 13.68 109 13 109 C13 109.66 13 110.32 13 111 C11.22604 112.60427 9.46263 114.05669 7.5625 115.5 C7.27294 115.71999 7.27294 115.71999 5.80762 116.83325 C-6.51144 125.97829 -19.68369 132.6081 -34 138 C-35.05445 138.41121 -36.10891 138.82242 -37.19531 139.24609 C-48.89985 143.69643 -60.24509 144.98339 -72.73047 145.17578 C-73.41558 145.18776 -74.10068 145.19974 -74.80655 145.21208 C-77.63708 145.26034 -80.46719 145.30792 -83.2981 145.32593 C-96.77983 145.42769 -110.11475 147.16478 -122.1875 153.625 C-122.84057 153.96346 -123.49364 154.30192 -124.1665 154.65063 C-131.04684 158.34829 -137.04953 162.9722 -143 168 C-143.92941 168.7773 -144.85883 169.55461 -145.81641 170.35547 C-150.94001 174.79185 -155.22366 179.36619 -159 185 C-160.32 184.67 -161.64 184.34 -163 184 C-162.56442 177.99519 -160.70945 174.27323 -157.5 169.25 C-152.43726 160.9967 -148.2487 152.4878 -144.23486 143.68604 C-143.01742 141.0379 -141.77651 138.4014 -140.53337 135.76526 C-136.66659 127.5462 -133.01065 119.25204 -129.5 110.875 C-129.21764 110.20136 -128.93529 109.52773 -128.64438 108.83368 C-122.76295 94.75032 -117.95013 80.51739 -113.57031 65.90625 C-113.35383 65.18594 -113.13734 64.46562 -112.91429 63.72348 C-111.83982 60.14658 -110.77322 56.56784 -109.72583 52.98291 C-102.59263 28.80318 -92.67001 7.15485 -70 -6 C-65.74955 -7.99849 -61.48154 -9.60209 -57 -11 C-56.23301 -11.24492 -55.46602 -11.48984 -54.67578 -11.74219 C-36.1582 -16.73954 -15.34966 -10.74953 0 0 Z " fill="#FB4138" transform="translate(411,48)"/>
<path d="M0 0 C14.96571 -0.74829 30.4814 5.25842 41.65625 14.94531 C49.4035 22.40232 54.26721 30.10982 57.84375 40.19531 C58.18664 40.95844 58.52953 41.72156 58.88281 42.50781 C60.10043 45.91317 60.50779 49.31052 60.90625 52.88281 C61.72154 59.95089 61.72154 59.95089 62.84375 62.19531 C64.24699 78.19027 64.85086 101.84034 56.84375 116.19531 C56.18375 116.19531 55.52375 116.19531 54.84375 116.19531 C54.84375 116.85531 54.84375 117.51531 54.84375 118.19531 C53.06989 119.7995 51.30597 121.25167 49.40625 122.69531 C48.83221 123.13311 48.25818 123.57091 47.66675 124.02197 C40.44721 129.39612 32.74632 133.90886 24.84375 138.19531 C23.96203 138.68387 23.08031 139.17242 22.17188 139.67578 C16.24522 142.50627 10.34838 142.62758 3.89478 142.83423 C-1.11907 143.00927 -5.73569 143.62518 -10.65625 144.69531 C-20.99631 146.85652 -31.6176 146.71347 -42.13867 146.9043 C-64.89861 147.31885 -84.6689 153.03013 -102.15625 168.19531 C-102.48625 167.53531 -102.81625 166.87531 -103.15625 166.19531 C-102.01639 163.83719 -100.8228 161.59352 -99.53125 159.32031 C-96.40296 153.65543 -93.70513 147.98832 -91.30859 141.96875 C-90.17248 139.23438 -88.89369 136.63566 -87.53125 134.00781 C-85.63561 130.30484 -84.22631 126.67077 -83.00342 122.70117 C-82.10282 120.03727 -81.02771 117.50435 -79.90625 114.92578 C-76.73557 107.37874 -74.20044 99.65693 -71.65625 91.88281 C-71.19184 90.47447 -70.727 89.06626 -70.26172 87.6582 C-67.01682 77.83018 -67.01682 77.83018 -65.47754 73.11725 C-64.82105 71.10722 -64.16077 69.09847 -63.5 67.08984 C-63.12037 65.92945 -62.74074 64.76905 -62.34961 63.57349 C-61.49165 61.14477 -60.59416 58.82738 -59.56958 56.47217 C-58.14717 53.17425 -57.22812 49.98471 -56.34375 46.50781 C-51.49279 29.40276 -41.45916 16.26086 -26.17188 6.99219 C-17.90479 2.56103 -9.22766 0.83584 0 0 Z " fill="#F84037" transform="translate(369.15625,40.8046875)"/>
<path d="M0 0 C5.85053 2.33248 8.5722 7.99797 12 13 C12.38994 13.55913 12.77988 14.11826 13.18164 14.69434 C37 48.88272 37 48.88272 37 62 C37.66 62 38.32 62 39 62 C43.90465 72.87372 46.18636 84.11081 48.50684 95.75439 C49 98 49 98 50 101 C51.79222 111.08247 52.31959 120.99784 52.26074 131.21851 C52.24989 133.46039 52.26078 135.7015 52.27344 137.94336 C52.27212 139.39844 52.26956 140.85352 52.26562 142.30859 C52.26337 143.59564 52.26111 144.88269 52.25879 146.20874 C51.97302 150.39526 51.12695 153.96697 50 158 C49.34 158 48.68 158 48 158 C48 158.66 48 159.32 48 160 C26.9015 159.62324 5.13814 142.27025 -11.17822 130.33105 C-12.78117 129.15989 -14.39558 128.00445 -16.01172 126.85156 C-28.48109 117.93187 -40.32328 108.17165 -52.19141 98.47656 C-53.79235 97.16952 -55.39598 95.86577 -57 94.5625 C-58.7545 93.13442 -60.50471 91.70105 -62.25 90.26172 C-64.34297 88.54037 -66.44796 86.83898 -68.5625 85.14453 C-69.77125 84.15936 -70.97959 83.17369 -72.1875 82.1875 C-72.76524 81.73101 -73.34298 81.27452 -73.93823 80.8042 C-75.54297 79.48047 -75.54297 79.48047 -78 77 C-78 73 -78 73 -75.65625 70.44922 C-74.61423 69.51727 -73.56144 68.59726 -72.5 67.6875 C-71.94973 67.2004 -71.39946 66.71329 -70.83252 66.21143 C-69.23059 64.79702 -67.61694 63.3972 -66 62 C-65.26523 61.35418 -64.53047 60.70836 -63.77344 60.04297 C-62.5138 58.93625 -61.2508 57.83333 -59.98438 56.73438 C-55.94627 53.20501 -51.98026 49.59429 -48 46 C-38.50781 37.42827 -38.50781 37.42827 -34.125 33.625 C-31.27674 31.14925 -28.49167 28.6137 -25.72388 26.04834 C-20.39348 21.11012 -14.95718 16.4122 -9.27734 11.875 C-7 10 -7 10 -5.31641 8.25 C-4 7 -4 7 -2 7 C-1.85563 6.03062 -1.71125 5.06125 -1.5625 4.0625 C-1 1 -1 1 0 0 Z " fill="#FA4137" transform="translate(356,319)"/>
<path d="M0 0 C7.00231 1.12646 10.92131 8.81845 14.8125 14.1875 C15.48152 15.12207 16.15055 16.05664 16.83984 17.01953 C20.35994 21.87637 24.04879 26.60176 27.72217 31.34277 C28.98068 32.97494 30.22831 34.61483 31.47266 36.25781 C37.39565 44.06235 43.57652 51.60216 50 59 C50.73863 59.85207 51.47727 60.70414 52.23828 61.58203 C55.53491 65.31259 58.89028 68.92204 62.48438 72.36719 C62.78513 72.65787 62.78513 72.65787 64.30713 74.12891 C65.5014 75.27602 66.70659 76.4119 67.92334 77.53516 C69.57031 79.11719 69.57031 79.11719 72 82 C71.68577 84.5742 71.3003 85.68644 69.49609 87.57031 C64.01761 91.70777 58.3216 95.37475 52.47998 98.96875 C47.43108 102.08003 42.48125 105.31236 37.5625 108.625 C-32.27311 155.46072 -32.27311 155.46072 -46.22656 153.72266 C-48 153 -48 153 -49.1875 150.9375 C-59.44955 113.83626 -44.15186 69.2294 -26.12915 36.85205 C-18.70869 23.86067 -10.41535 10.81876 0 0 Z " fill="#F94036" transform="translate(132,326)"/>
<path d="M0 0 C6.57556 4.03763 13.17495 9.57958 17.4375 16.0625 C17.4375 16.7225 17.4375 17.3825 17.4375 18.0625 C19.28854 16.28265 21.08377 14.522 22.65234 12.48438 C27.9015 5.72894 36.6087 -1.03472 45.323 -2.18677 C57.44851 -3.08532 66.13572 -1.33074 76.09766 6.02734 C78.25347 7.90243 79.60753 9.4451 81.0625 11.875 C81.44664 12.5002 81.83078 13.12539 82.22656 13.76953 C86.8374 22.50038 87.85242 30.26656 86.4375 40.0625 C85.06383 44.27716 83.07102 47.51653 80.4375 51.0625 C79.79555 51.95066 79.15359 52.83883 78.49219 53.75391 C70.42911 64.21211 60.30009 72.68589 50.05078 80.91797 C47.43902 83.06125 44.93385 85.2863 42.4375 87.5625 C38.08263 91.52966 33.5777 95.27019 29 98.97656 C25.76011 101.61391 22.59432 104.32659 19.4375 107.0625 C15.14305 105.65411 12.56704 103.60395 9.3125 100.5 C5.65333 97.08054 1.97671 93.81773 -1.9375 90.6875 C-7.37223 86.3024 -12.46265 81.60717 -17.5625 76.84375 C-19.91267 74.65182 -22.30688 72.52598 -24.75 70.4375 C-27.90291 67.69467 -30.93779 64.84735 -33.9375 61.9375 C-34.77023 61.13055 -35.60297 60.32359 -36.46094 59.49219 C-38.56061 57.06468 -39.58072 55.09415 -40.5625 52.0625 C-41.2225 52.0625 -41.8825 52.0625 -42.5625 52.0625 C-47.49726 40.48931 -50.93994 30.85492 -47 18.3125 C-43.10191 8.87287 -36.53596 3.5963 -27.5625 -0.9375 C-19.62854 -3.58215 -7.59782 -3.54322 0 0 Z " fill="#FDFBFA" transform="translate(224.5625,265.9375)"/>
<path d="M0 0 C7.59738 6.05768 14.71619 12.65378 18 22 C18.23719 22.38156 18.23719 22.38156 19.4375 24.3125 C24.47737 32.98108 24.65596 41.22461 25 51 C25.66 51 26.32 51 27 51 C27.5818 81.74563 27.5818 81.74563 24.78516 92.82812 C23.92665 96.29633 23.48486 99.70366 23.0625 103.25 C22.33426 108.60645 21.05118 113.28391 19.06641 118.30078 C17.95646 121.1102 16.99943 123.94102 16.0625 126.8125 C14.55274 131.36556 13.01668 135.90799 11.4375 140.4375 C11.04434 141.57059 10.65117 142.70367 10.24609 143.87109 C9.07049 146.82301 7.6378 149.28917 6 152 C4.93175 154.7688 3.99968 157.56346 3.0625 160.37891 C2.0042 162.98964 0.73576 164.80325 -1 167 C-1.67349 168.66392 -2.34092 170.33032 -3 172 C-3.66 172.66 -4.32 173.32 -5 174 C-5.625 176.125 -5.625 176.125 -6 178 C-6.66 178 -7.32 178 -8 178 C-8.10441 178.73605 -8.20883 179.47211 -8.31641 180.23047 C-9.06298 183.25515 -10.07056 184.83935 -11.9375 187.3125 C-15.19007 191.77393 -18.11848 196.35888 -21 201.0625 C-24.1018 206.08144 -27.25237 210.90455 -30.98047 215.48828 C-32.64994 217.56463 -34.26403 219.66288 -35.86328 221.79297 C-45.71412 234.8983 -56.30624 247.19471 -67.44141 259.21875 C-69.89453 261.88535 -72.29235 264.5939 -74.6875 267.3125 C-77.8749 270.86659 -81.18956 274.0173 -84.83594 277.08984 C-87.50689 279.44741 -90.00097 281.96386 -92.5 284.5 C-96.83788 288.88415 -101.30726 293.00104 -106 297 C-107.1599 298.01052 -108.31865 299.02236 -109.47656 300.03516 C-116.52464 306.19336 -123.61982 312.2406 -131 318 C-132.33871 319.05838 -133.67724 320.117 -135.01562 321.17578 C-147.63188 331.11795 -160.45569 340.72799 -174.125 349.1875 C-174.42064 349.37494 -174.42064 349.37494 -175.91675 350.32349 C-179.91937 352.73053 -183.3281 353.84154 -188 354 C-205.50378 347.16491 -223.27148 324.08149 -232 308 C-232.66395 306.46605 -233.31076 304.92453 -233.9375 303.375 C-237.41899 295.261 -244.4323 289.53551 -250.59766 283.42578 C-253.90477 280.08641 -256.96685 276.58747 -260 273 C-260.42217 272.505 -260.42217 272.505 -262.55859 270 C-268.45842 263.06957 -274.27412 256.07514 -280 249 C-280.74379 248.11313 -281.48758 247.22625 -282.25391 246.3125 C-284 244 -284 244 -284 242 C-284.66 242 -285.32 242 -286 242 C-287.41016 240.01563 -287.41016 240.01563 -289.0625 237.25 C-291.67326 233.01971 -294.42069 229.01359 -297.4375 225.0625 C-301.89713 219.21019 -305.974 213.15538 -310 207 C-310.34869 206.48115 -310.34869 206.48115 -312.11328 203.85547 C-313.83073 201.25618 -315.36461 198.60146 -316.88281 195.88281 C-318.07933 193.86631 -319.40108 191.98016 -320.75 190.0625 C-337.16113 165.67317 -347.65286 134.61602 -353 106 C-353.17136 105.14261 -353.34273 104.28522 -353.51929 103.40186 C-355.21504 93.97194 -355.33867 84.66777 -355.31567 75.11865 C-355.31253 72.4003 -355.336 69.68306 -355.36133 66.96484 C-355.41882 51.41711 -353.85072 36.23499 -349.0625 21.375 C-348.82338 20.58223 -348.58426 19.78945 -348.33789 18.97266 C-345.9328 11.21798 -342.86221 3.95509 -338.4375 -2.875 C-337.85871 -3.77992 -337.27992 -4.68484 -336.68359 -5.61719 C-333.76798 -9.74369 -333.76798 -9.74369 -332 -11 C-328.55654 -11.46872 -326.67377 -11.39061 -323.64844 -9.63672 C-322.8982 -8.99348 -322.14797 -8.35023 -321.375 -7.6875 C-320.50875 -6.95016 -319.6425 -6.21281 -318.75 -5.45312 C-313.78178 -1.02125 -308.86353 3.45404 -304 8 C-302.66545 9.24097 -301.33081 10.48185 -299.99609 11.72266 C-281.77165 28.69914 -281.77165 28.69914 -273.94531 37.83594 C-271.55974 40.48976 -269.03902 42.99477 -266.5 45.5 C-262.81776 49.13836 -259.29281 52.84593 -255.93359 56.78516 C-253.90096 59.11345 -251.80585 61.37177 -249.69629 63.63013 C-244.6267 69.05812 -239.79818 74.59271 -235.14453 80.38672 C-233.00125 82.99848 -230.7762 85.50365 -228.5 88 C-224.58109 92.29992 -220.90829 96.7592 -217.25 101.28125 C-215.06498 103.92148 -212.80829 106.4673 -210.5 109 C-206.27852 113.6429 -202.30697 118.45094 -198.36182 123.3291 C-196.79837 125.2474 -195.21856 127.15153 -193.63672 129.05469 C-186.86266 137.21036 -180.17747 145.37753 -174 154 C-173.6165 154.53238 -173.6165 154.53238 -171.67578 157.22656 C-170.93715 158.28617 -170.19852 159.34578 -169.4375 160.4375 C-168.77621 161.38496 -168.11492 162.33242 -167.43359 163.30859 C-165.90362 166.18094 -165.68066 167.80081 -166 171 C-174.83662 169.56237 -181.0771 156.63482 -186 150 C-191.62462 142.5363 -197.60832 135.36482 -203.5625 128.16406 C-205.59296 125.70818 -207.61743 123.24807 -209.625 120.77344 C-213.62808 115.83909 -217.72188 111.03074 -221.97266 106.30859 C-224.19532 103.77758 -226.31857 101.18087 -228.4375 98.5625 C-232.12084 94.0233 -235.94846 89.65438 -239.88281 85.33203 C-241.78051 83.24176 -243.64733 81.13014 -245.5 79 C-248.8586 75.14612 -252.27347 71.34502 -255.69922 67.55078 C-257.1641 65.92673 -258.62544 64.29946 -260.08203 62.66797 C-271.66794 49.70637 -283.64753 37.14504 -295.92334 24.83643 C-298.13711 22.61284 -300.33995 20.37876 -302.54297 18.14453 C-319.65155 0.90308 -319.65155 0.90308 -327 -3 C-329.2019 -2.8999 -329.2019 -2.8999 -331 -2 C-332.531 0.33759 -333.74431 2.49592 -334.9375 5 C-335.2845 5.71479 -335.6315 6.42957 -335.98901 7.16602 C-345.09384 26.59077 -348.18755 48.36217 -348.1853 69.62329 C-348.18747 71.90075 -348.2056 74.17771 -348.22461 76.45508 C-348.25453 84.10855 -347.98332 91.6459 -347.11328 99.25391 C-347.03555 99.9446 -346.95782 100.63529 -346.87773 101.34691 C-346.35847 105.44182 -345.39005 109.12143 -344 113 C-343.60406 114.99596 -343.23063 116.99646 -342.875 119 C-341.27082 126.83613 -338.53923 134.1602 -335.69287 141.62305 C-335.34692 142.53506 -335.00097 143.44707 -334.64453 144.38672 C-334.4865 144.79515 -334.4865 144.79515 -333.68677 146.86206 C-333 149 -333 149 -333 152 C-332.34 152 -331.68 152 -331 152 C-329.50179 155.37097 -329 157.20442 -329 161 C-328.34 161 -327.68 161 -327 161 C-326.51531 161.98098 -326.03062 162.96195 -325.53125 163.97266 C-316.87722 181.42459 -307.74377 198.19869 -296.75 214.3125 C-296.37428 214.86381 -295.99856 215.41511 -295.61145 215.98312 C-289.99889 224.20812 -284.26594 232.25502 -278 240 C-276.96482 241.29035 -275.92967 242.58071 -274.89453 243.87109 C-271.62222 247.93547 -268.31802 251.97289 -265 256 C-264.52949 256.5725 -264.05898 257.14501 -263.57422 257.73486 C-254.59228 268.62902 -245.14604 279.17833 -234.875 288.875 C-230.98054 292.71144 -228.44915 296.69994 -227 302 C-227 303.32 -227 304.64 -227 306 C-226.34 306 -225.68 306 -225 306 C-223.73828 307.87109 -223.73828 307.87109 -222.3125 310.4375 C-214.46577 323.82751 -201.31261 340.08806 -187 347 C-182.09095 346.97529 -178.26028 343.88185 -174.3125 341.25 C-173.57137 340.76193 -172.83024 340.27386 -172.06665 339.771 C-158.40602 330.69452 -145.3747 320.92518 -132.75732 310.45312 C-130.23067 308.36384 -127.67532 306.31029 -125.125 304.25 C-120.73595 300.65717 -116.50519 296.91694 -112.3125 293.09766 C-110.33616 291.30493 -108.33543 289.55205 -106.3125 287.8125 C-74.34466 259.89692 -74.34466 259.89692 -64.44922 245.78906 C-63.97098 245.19867 -63.49273 244.60828 -63 244 C-62.34 244 -61.68 244 -61 244 C-60.88656 243.73059 -60.88656 243.73059 -60.3125 242.36719 C-58.59601 239.27138 -56.32729 236.76638 -54 234.125 C-49.14542 228.50231 -44.77178 222.66624 -40.52344 216.57812 C-38.84548 214.1758 -37.1242 211.81768 -35.35156 209.48438 C-28.29144 200.16705 -22.21978 190.4183 -16.34863 180.31396 C-15.15074 178.25863 -13.93543 176.21533 -12.71094 174.17578 C-8.35376 166.79887 -4.76123 159.28159 -1.44531 151.39844 C-0.37185 148.87435 0.73048 146.42811 2 144 C2.66 144 3.32 144 4 144 C4.06187 143.0925 4.12375 142.185 4.1875 141.25 C4.84662 136.52156 6.84358 132.41267 8.73047 128.0625 C10.49962 123.79477 11.77288 119.44744 13 115 C13.32613 113.90559 13.65227 112.81117 13.98828 111.68359 C15.58986 105.85235 16.59385 99.91744 17.64307 93.96777 C17.94948 92.27852 18.2898 90.59547 18.63672 88.91406 C20.03148 81.53468 20.20751 74.23806 20.25 66.75 C20.25927 65.73164 20.26853 64.71328 20.27808 63.66406 C20.2554 58.21547 19.82449 53.2594 18.49023 47.97461 C17.82635 45.30057 17.48936 42.60395 17.125 39.875 C16.28466 34.65429 14.85464 31.41172 12 27 C11.5875 25.90687 11.175 24.81375 10.75 23.6875 C6.07516 12.50307 -4.35045 4.18152 -15.06641 -0.86719 C-31.01456 -7.02559 -47.5285 -8.21194 -63.5 -1.25 C-80.44915 7.22458 -90.94255 19.67161 -96.94922 37.57422 C-98.16055 41.52344 -99.22193 45.49804 -100.25781 49.49609 C-100.9758 51.91834 -101.86736 54.08954 -102.9375 56.375 C-105.27286 61.38812 -106.77789 66.56573 -108.35352 71.85791 C-109.71705 76.37591 -111.14131 80.87487 -112.5625 85.375 C-112.85552 86.31432 -113.14854 87.25365 -113.45044 88.22144 C-115.05367 93.29328 -116.8243 98.14697 -119 103 C-119.65293 104.60129 -120.29951 106.2052 -120.9375 107.8125 C-121.10701 108.23789 -121.10701 108.23789 -121.96484 110.39062 C-122.64639 112.10864 -123.32613 113.82737 -124.00391 115.54688 C-126.64082 122.20637 -129.37019 128.80306 -132.625 135.1875 C-134 138 -134 138 -134.82812 140.65234 C-136.26381 144.75362 -138.14831 148.51241 -140.125 152.375 C-140.49754 153.11105 -140.87008 153.84711 -141.25391 154.60547 C-142.16561 156.4055 -143.0823 158.20301 -144 160 C-143.37996 159.51531 -142.75992 159.03062 -142.12109 158.53125 C-123.32475 144.30403 -105.23523 139.09446 -81.76147 138.6687 C-70.57852 138.4526 -59.75312 138.0635 -48.78516 135.69922 C-41.60074 134.37207 -34.28962 134.24725 -27 134 C-29.7418 136.7418 -32.99076 137.68776 -36.5625 139 C-37.28977 139.26837 -38.01705 139.53673 -38.76636 139.81323 C-49.97748 143.87487 -60.8226 144.99383 -72.73047 145.17578 C-73.41555 145.18775 -74.10063 145.19972 -74.80647 145.21205 C-77.63702 145.26035 -80.46717 145.30792 -83.2981 145.32593 C-96.77983 145.42769 -110.11475 147.16478 -122.1875 153.625 C-122.84057 153.96346 -123.49364 154.30192 -124.1665 154.65063 C-131.04684 158.34829 -137.04953 162.9722 -143 168 C-143.92941 168.7773 -144.85883 169.55461 -145.81641 170.35547 C-150.94001 174.79185 -155.22366 179.36619 -159 185 C-160.32 184.67 -161.64 184.34 -163 184 C-162.56442 177.99519 -160.70945 174.27323 -157.5 169.25 C-152.43726 160.9967 -148.2487 152.4878 -144.23486 143.68604 C-143.01742 141.0379 -141.77651 138.4014 -140.53337 135.76526 C-136.66659 127.5462 -133.01065 119.25204 -129.5 110.875 C-129.21764 110.20136 -128.93529 109.52773 -128.64438 108.83368 C-122.76295 94.75032 -117.95013 80.51739 -113.57031 65.90625 C-113.35383 65.18594 -113.13734 64.46562 -112.91429 63.72348 C-111.83982 60.14658 -110.77322 56.56784 -109.72583 52.98291 C-102.59263 28.80318 -92.67001 7.15485 -70 -6 C-65.74955 -7.99849 -61.48154 -9.60209 -57 -11 C-56.23301 -11.24492 -55.46602 -11.48984 -54.67578 -11.74219 C-36.1582 -16.73954 -15.34966 -10.74953 0 0 Z " fill="#231D1D" transform="translate(411,48)"/>
<path d="M0 0 C3.4375 1.8125 3.4375 1.8125 6 4 C6.59812 4.47437 7.19625 4.94875 7.8125 5.4375 C9.39622 7.52134 9.6538 9.43815 10 12 C10.66 12 11.32 12 12 12 C12.34547 13.11246 12.69094 14.22492 13.04688 15.37109 C14.4669 18.67589 14.7502 18.89885 18.32812 20.34766 C19.62234 20.58355 20.91656 20.81945 22.25 21.0625 C30.13348 22.73413 34.43878 25.15816 39 32 C39.86855 40.51381 39.73845 47.72919 35 55 C34.63777 55.74766 34.27555 56.49531 33.90234 57.26562 C30.06441 65.12364 24.06484 69.70823 16 73 C3.92076 76.78071 -7.78531 75.49049 -19.15625 69.94922 C-20.8125 68.9375 -20.8125 68.9375 -23 67 C-23 66.01 -23 65.02 -23 64 C-23.66 64 -24.32 64 -25 64 C-26.47796 61.04407 -26.18332 58.03137 -26.20312 54.78906 C-26.20883 54.06569 -26.21453 53.34231 -26.2204 52.59702 C-26.22986 51.05867 -26.23639 49.5203 -26.24023 47.98193 C-26.24982 45.66856 -26.28078 43.35613 -26.3125 41.04297 C-26.39695 29.23038 -25.83316 14.26214 -17.25781 5.14844 C-11.63561 0.22609 -7.49983 -0.85251 0 0 Z " fill="#FBFBFA" transform="translate(365,74)"/>
<path d="M0 0 C7.00231 1.12646 10.92131 8.81845 14.8125 14.1875 C15.48152 15.12207 16.15055 16.05664 16.83984 17.01953 C20.35994 21.87637 24.04879 26.60176 27.72217 31.34277 C28.98068 32.97494 30.22831 34.61483 31.47266 36.25781 C37.39565 44.06235 43.57652 51.60216 50 59 C50.73863 59.85207 51.47727 60.70414 52.23828 61.58203 C55.53491 65.31259 58.89028 68.92204 62.48438 72.36719 C62.78513 72.65787 62.78513 72.65787 64.30713 74.12891 C65.5014 75.27602 66.70659 76.4119 67.92334 77.53516 C69.57031 79.11719 69.57031 79.11719 72 82 C71.68577 84.5742 71.3003 85.68644 69.49609 87.57031 C64.01761 91.70777 58.3216 95.37475 52.47998 98.96875 C47.43108 102.08003 42.48125 105.31236 37.5625 108.625 C-32.27311 155.46072 -32.27311 155.46072 -46.22656 153.72266 C-48 153 -48 153 -49.1875 150.9375 C-59.44955 113.83626 -44.15186 69.2294 -26.12915 36.85205 C-18.70869 23.86067 -10.41535 10.81876 0 0 Z M-0.59375 10.44141 C-4.89474 15.22714 -8.67301 20.22567 -12.25 25.5625 C-12.66186 26.17489 -13.07371 26.78727 -13.49805 27.41821 C-21 38.84592 -21 38.84592 -21 44 C-21.66 44 -22.32 44 -23 44 C-24.47561 47.18239 -25.94693 50.36658 -27.41016 53.55469 C-28.31949 55.52529 -29.23806 57.49182 -30.18359 59.44531 C-32.55858 64.45404 -33.94869 69.38851 -35.09375 74.8125 C-35.86163 77.51333 -36.76563 79.72499 -37.95703 82.24609 C-40.16838 87.07868 -41.24278 91.85257 -42.1875 97.0625 C-42.26968 97.48563 -42.26968 97.48563 -42.68555 99.62695 C-44.41317 108.69874 -45.16075 117.33417 -45.125 126.5625 C-45.12887 127.56475 -45.13273 128.56699 -45.13672 129.59961 C-45.12982 134.8415 -44.91258 139.83594 -44 145 C-40.06728 146.08502 -37.99327 145.95445 -34.29688 144.26172 C-33.40807 143.85921 -32.51926 143.4567 -31.60352 143.04199 C-30.66186 142.59501 -29.7202 142.14803 -28.75 141.6875 C-28.25854 141.45821 -28.25854 141.45821 -25.77148 140.29785 C-16.83523 136.05618 -8.36858 131.26025 0 126 C0.86657 125.45795 1.73314 124.9159 2.62598 124.35742 C12.72636 118.02478 22.75752 111.58895 32.64062 104.92188 C35.76654 102.81616 38.91144 100.74053 42.06291 98.67328 C44.56162 97.03322 47.05663 95.38759 49.55142 93.74158 C50.80601 92.9157 52.06218 92.0922 53.31992 91.27112 C55.09123 90.11415 56.85667 88.94869 58.62109 87.78125 C59.65677 87.10127 60.69246 86.42129 61.75952 85.7207 C62.49888 85.15287 63.23824 84.58504 64 84 C64 83.34 64 82.68 64 82 C62.67187 80.73047 62.67187 80.73047 60.75 79.1875 C51.18436 71.02212 43.23955 61.28248 35.59375 51.34766 C33.23256 48.27968 30.78648 45.29059 28.3125 42.3125 C24.80636 38.05196 21.54068 33.66994 18.32031 29.19141 C15.29695 25.03301 12.2229 20.91557 9.125 16.8125 C8.55298 16.0447 7.98096 15.2769 7.3916 14.48584 C6.85245 13.77508 6.3133 13.06433 5.75781 12.33203 C5.51619 12.01093 5.51619 12.01093 4.29346 10.38599 C4.08004 10.1573 4.08004 10.1573 3 9 C1 9 1 9 -0.59375 10.44141 Z " fill="#221D1D" transform="translate(132,326)"/>
<path d="M0 0 C5.85053 2.33248 8.5722 7.99797 12 13 C12.38994 13.55913 12.77988 14.11826 13.18164 14.69434 C37 48.88272 37 48.88272 37 62 C37.66 62 38.32 62 39 62 C43.90465 72.87372 46.18636 84.11081 48.50684 95.75439 C49 98 49 98 50 101 C51.79222 111.08247 52.31959 120.99784 52.26074 131.21851 C52.24989 133.46039 52.26078 135.7015 52.27344 137.94336 C52.27212 139.39844 52.26956 140.85352 52.26562 142.30859 C52.26337 143.59564 52.26111 144.88269 52.25879 146.20874 C51.97302 150.39526 51.12695 153.96697 50 158 C49.34 158 48.68 158 48 158 C48 158.66 48 159.32 48 160 C26.9015 159.62324 5.13814 142.27025 -11.17822 130.33105 C-12.78117 129.15989 -14.39558 128.00445 -16.01172 126.85156 C-28.48109 117.93187 -40.32328 108.17165 -52.19141 98.47656 C-53.79235 97.16952 -55.39598 95.86577 -57 94.5625 C-58.7545 93.13442 -60.50471 91.70105 -62.25 90.26172 C-64.34297 88.54037 -66.44796 86.83898 -68.5625 85.14453 C-69.77125 84.15936 -70.97959 83.17369 -72.1875 82.1875 C-72.76524 81.73101 -73.34298 81.27452 -73.93823 80.8042 C-75.54297 79.48047 -75.54297 79.48047 -78 77 C-78 75.68 -78 74.36 -78 73 C-76.30859 72.26562 -76.30859 72.26562 -74 72 C-71.66016 73.48438 -71.66016 73.48438 -69.0625 75.75 C-68.57652 76.16637 -68.57652 76.16637 -66.11719 78.27344 C-65.6064 78.72042 -65.09561 79.1674 -64.56934 79.62793 C-61.96549 81.90447 -59.32586 84.13864 -56.6875 86.375 C-56.14319 86.83769 -55.59889 87.30039 -55.03809 87.7771 C-49.45477 92.50301 -43.71215 97.01252 -37.93359 101.49609 C-35.8777 103.09512 -33.82911 104.7032 -31.78125 106.3125 C-27.20736 109.90097 -22.6107 113.45897 -18 117 C-17.22995 117.59249 -16.45989 118.18497 -15.6665 118.79541 C2.58354 132.76255 22.59683 146.79893 45 153 C45.0754 147.75711 45.12918 142.51455 45.16479 137.27124 C45.17968 135.49579 45.19999 133.72038 45.22632 131.94507 C45.39981 119.92646 44.52859 108.75475 42 97 C41.81196 96.0672 41.62392 95.1344 41.43018 94.17334 C40.39585 89.21698 38.90255 84.53426 37.20703 79.77344 C36.93246 78.98195 36.65789 78.19047 36.375 77.375 C36.11461 76.64023 35.85422 75.90547 35.58594 75.14844 C35 73 35 73 35 69 C34.34 69 33.68 69 33 69 C32.82984 68.35934 32.65969 67.71867 32.48438 67.05859 C30.91407 61.45394 29.00001 56.96876 26 52 C25.26574 50.30801 24.53237 48.61552 23.82031 46.91406 C18.4374 34.35393 11.02072 22.27776 2.375 11.69922 C-0.69124 7.90998 -1.31507 5.83104 -1 1 C-0.67 0.67 -0.34 0.34 0 0 Z " fill="#231F1F" transform="translate(356,319)"/>
<path d="M0 0 C5.78173 3.35483 10.8098 7.91137 12.75 14.4375 C13.42969 16.48438 13.42969 16.48438 14.75 18.4375 C17.39453 19.37891 17.39453 19.37891 20.5625 20 C26.80343 21.24819 30.98112 23.38611 35.5 27.875 C35.79648 28.16311 35.79648 28.16311 37.29688 29.62109 C41.50415 34.88018 40.39981 43.78056 40.01953 50.20996 C38.78008 60.45343 32.46695 70.67512 24.62109 77.21094 C19.66499 80.74486 14.61168 82.87962 8.75 84.4375 C8.12738 84.62184 7.50477 84.80617 6.86328 84.99609 C-4.72267 87.41608 -17.3887 84.84456 -27.41406 78.74609 C-32.42048 75.17769 -34.74799 70.28389 -36.25 64.4375 C-36.62631 60.36629 -36.5824 56.33498 -36.5 52.25 C-36.48542 51.13375 -36.47083 50.0175 -36.45581 48.86743 C-36.40554 45.72341 -36.33075 42.58086 -36.25 39.4375 C-36.23066 38.13039 -36.21133 36.82328 -36.19141 35.47656 C-35.74181 24.65909 -33.12469 11.70172 -25.12109 3.92188 C-17.70155 -1.9642 -8.98374 -4.02179 0 0 Z M-20.25 8.4375 C-20.97188 9.015 -21.69375 9.5925 -22.4375 10.1875 C-24.9597 13.31851 -26.09202 16.64726 -27.25 20.4375 C-27.50999 21.24429 -27.76998 22.05108 -28.03784 22.88232 C-30.44287 31.24653 -30.64949 39.13671 -30.53125 47.75928 C-30.49958 50.09358 -30.49021 52.42722 -30.48438 54.76172 C-30.47522 56.25001 -30.46485 57.73829 -30.45312 59.22656 C-30.44888 59.9223 -30.44463 60.61805 -30.44025 61.33487 C-30.36738 66.20274 -30.36738 66.20274 -29.25 68.4375 C-28.59 68.4375 -27.93 68.4375 -27.25 68.4375 C-27.1791 69.04336 -27.1082 69.64922 -27.03516 70.27344 C-25.94523 73.2775 -24.53692 73.71392 -21.6875 75.0625 C-10.87276 80.04096 -0.47247 81.01074 11.04688 77.47266 C21.46473 73.48316 27.51305 67.649 32.0625 57.5625 C32.62947 56.18934 33.19284 54.81467 33.75 53.4375 C33.915 53.1075 33.915 53.1075 34.75 51.4375 C36.06871 39.17946 36.06871 39.17946 33.46875 33.77344 C29.09534 28.46571 24.05261 26.09514 17.34766 25.07031 C11.23662 24.09968 11.23662 24.09968 9.51562 21.75781 C8.6875 19.8125 8.6875 19.8125 7.75 16.4375 C7.09 16.4375 6.43 16.4375 5.75 16.4375 C5.54375 15.55062 5.3375 14.66375 5.125 13.75 C3.20703 9.12943 0.2717 6.69835 -4.25 4.4375 C-10.74909 3.72447 -15.11678 4.03759 -20.25 8.4375 Z " fill="#201A1A" transform="translate(369.25,69.5625)"/>
<path d="M0 0 C2.59818 0.59994 4.10343 1.82979 6.14844 3.49609 C8.85779 3.3213 10.24678 2.4314 12.52344 0.93359 C15.77 -0.84429 17.49042 -1.02648 21.14844 -0.50391 C26.85613 2.61917 26.85613 2.61917 28.14844 6.49609 C28.80844 6.49609 29.46844 6.49609 30.14844 6.49609 C30.14844 9.79609 30.14844 13.09609 30.14844 16.49609 C29.48844 16.49609 28.82844 16.49609 28.14844 16.49609 C28.11879 16.84736 28.11879 16.84736 27.96875 18.625 C26.88875 22.40501 24.68939 24.67227 22.02344 27.43359 C21.5257 27.95848 21.02796 28.48337 20.51514 29.02417 C19.07343 30.52916 17.6153 32.01567 16.14844 33.49609 C15.45234 34.20508 14.75625 34.91406 14.03906 35.64453 C9.93421 39.51326 9.93421 39.51326 6.82422 39.44531 C3.27487 38.1862 0.89509 36.04486 -1.78906 33.49609 C-2.3154 33.00496 -2.84174 32.51383 -3.38403 32.00781 C-9.44649 26.19596 -14.84053 19.82178 -15.22656 11.12109 C-15.196 7.36191 -14.99246 6.67507 -12.53906 3.55859 C-7.71368 -0.14461 -5.85662 -0.76762 0 0 Z " fill="#171718" transform="translate(233.8515625,285.50390625)"/>
</svg>
